<svg width="59" height="54" viewBox="0 0 59 54" fill="none" xmlns="http://www.w3.org/2000/svg">
<path d="M50.8889 52.0006H8.11111C4.73604 52.0006 2 49.2703 2 45.9021V18.4589C2 15.0907 4.73604 12.3604 8.11111 12.3604H50.8889C54.2641 12.3604 57 15.0907 57 18.4589V45.9021C57 49.2703 54.2641 52.0006 50.8889 52.0006Z" stroke="black" stroke-width="3"/>
<path d="M43.2504 33.7045C42.4068 33.7045 41.7227 33.0218 41.7227 32.1799C41.7227 31.338 42.4068 30.6553 43.2504 30.6553C44.0941 30.6553 44.7782 31.338 44.7782 32.1799C44.7782 33.0218 44.0941 33.7045 43.2504 33.7045Z" fill="black" stroke="black" stroke-width="3" stroke-linecap="round" stroke-linejoin="round"/>
<path d="M47.8333 12.361V8.10183C47.8333 4.09493 44.0273 1.17683 40.1477 2.20924L6.53649 11.1537C3.86135 11.8656 2 14.2834 2 17.0463V18.4595" stroke="black" stroke-width="3"/>
</svg>
