<svg width="54" height="54" viewBox="0 0 54 54" fill="none" xmlns="http://www.w3.org/2000/svg">
<path d="M51.9798 25.9092C52.2155 31.3197 50.6889 36.6605 47.6293 41.1282C44.5698 45.596 40.1429 48.9491 35.0145 50.6833C29.8861 52.4174 24.3335 52.4388 19.1919 50.7442C14.0503 49.0496 9.59771 45.7307 6.50391 41.2866" stroke="black" stroke-width="3" stroke-linecap="round"/>
<path d="M2.00558 27.6111C1.96829 25.828 2.11793 24.0458 2.45205 22.2939C3.37509 17.4776 5.69363 13.0392 9.11909 9.53108C12.5445 6.02302 16.9256 3.60022 21.7171 2.56424C26.5085 1.52826 31.4987 1.92486 36.0666 3.70466C40.6344 5.48447 44.5782 8.56888 47.407 12.574" stroke="black" stroke-width="3" stroke-linecap="round"/>
<path d="M36.168 11.5105L47.7017 12.861L48.8498 2.03516" stroke="black" stroke-width="3" stroke-linecap="round"/>
<path d="M17.5138 42.0644L5.99072 40.7139L4.83203 51.5397" stroke="black" stroke-width="3" stroke-linecap="round"/>
<path d="M34.47 19.9874C33.8785 18.6101 32.89 17.4404 31.6309 16.6278C30.3717 15.8152 28.899 15.3965 27.4009 15.4252C21.0228 15.4252 20.7996 19.9874 20.7996 19.9874C20.7996 19.9874 19.8429 25.6024 27.6348 26.2085C35.7243 26.8253 34.47 32.4191 34.47 32.4191C34.47 32.4191 33.6408 37.2896 27.6348 37.598C21.6287 37.9064 19.7578 31.5896 19.7578 31.5896" stroke="black" stroke-width="3"/>
<path d="M27.3789 11.3828V42.2653" stroke="black" stroke-width="3"/>
</svg>
